<svg width="31" height="26" viewBox="0 0 31 26" fill="none" xmlns="http://www.w3.org/2000/svg">
<g clip-path="url(#clip0_890_1716)">
<path d="M15.3097 2.34299C19.3102 2.34299 19.7798 2.35848 21.361 2.4204C22.8233 2.47717 23.6139 2.68877 24.143 2.86939C24.8444 3.10679 25.3437 3.38547 25.8668 3.83962C26.3899 4.29377 26.7169 4.72727 26.9844 5.33624C27.1865 5.79555 27.4361 6.48194 27.5015 7.75149C27.5729 9.12426 27.5907 9.53196 27.5907 13.0052C27.5907 16.4784 27.5729 16.8861 27.5015 18.2588C27.4361 19.5284 27.1924 20.2148 26.9844 20.6741C26.7109 21.283 26.3899 21.7166 25.8668 22.1707C25.3437 22.6248 24.8444 22.9087 24.143 23.1409C23.6139 23.3164 22.8233 23.5331 21.361 23.5899C19.7798 23.6518 19.3102 23.6673 15.3097 23.6673C11.3092 23.6673 10.8396 23.6518 9.25838 23.5899C7.79607 23.5331 7.00548 23.3216 6.47643 23.1409C5.775 22.9035 5.27568 22.6248 4.75257 22.1707C4.22947 21.7166 3.90254 21.283 3.63504 20.6741C3.43293 20.2148 3.18327 19.5284 3.11788 18.2588C3.04655 16.8861 3.02872 16.4784 3.02872 13.0052C3.02872 9.53196 3.04655 9.12426 3.11788 7.75149C3.18327 6.48194 3.42699 5.79555 3.63504 5.33624C3.90848 4.72727 4.22947 4.29377 4.75257 3.83962C5.27568 3.38547 5.775 3.10163 6.47643 2.86939C7.00548 2.69393 7.79607 2.47717 9.25838 2.4204C10.8396 2.35331 11.3151 2.34299 15.3097 2.34299ZM15.3097 0C11.2438 0 10.7326 0.0154823 9.13355 0.0774117C7.54047 0.139341 6.45265 0.361254 5.50156 0.681223C4.5148 1.01151 3.6826 1.4605 2.85039 2.18301C2.01818 2.90552 1.50697 3.63319 1.12059 4.48472C0.752041 5.31044 0.496434 6.25486 0.425102 7.64311C0.35377 9.0262 0.335938 9.47003 0.335938 13C0.335938 16.53 0.35377 16.9738 0.425102 18.362C0.496434 19.7451 0.752041 20.6896 1.12059 21.5204C1.50103 22.3771 2.01818 23.0996 2.85039 23.8222C3.6826 24.5447 4.52075 24.9885 5.50156 25.3239C6.45265 25.6439 7.54047 25.8658 9.13949 25.9277C10.7385 25.9897 11.2438 26.0052 15.3156 26.0052C19.3875 26.0052 19.8928 25.9897 21.4918 25.9277C23.0849 25.8658 24.1727 25.6439 25.1297 25.3239C26.1165 24.9936 26.9487 24.5447 27.7809 23.8222C28.6131 23.0996 29.1243 22.372 29.5107 21.5204C29.8793 20.6947 30.1349 19.7503 30.2062 18.362C30.2775 16.9738 30.2954 16.5351 30.2954 13C30.2954 9.46487 30.2775 9.0262 30.2062 7.63795C30.1349 6.25486 29.8793 5.31044 29.5107 4.47956C29.1303 3.62287 28.6131 2.90036 27.7809 2.17785C26.9487 1.45534 26.1106 1.01151 25.1297 0.676062C24.1786 0.356094 23.0908 0.13418 21.4918 0.0722509C19.8868 0.0154823 19.3756 0 15.3097 0Z" fill="white"/>
<path d="M15.3097 2.34299C19.3102 2.34299 19.7798 2.35848 21.361 2.4204C22.8233 2.47717 23.6139 2.68877 24.143 2.86939C24.8444 3.10679 25.3437 3.38547 25.8668 3.83962C26.3899 4.29377 26.7169 4.72727 26.9844 5.33624C27.1865 5.79555 27.4361 6.48194 27.5015 7.75149C27.5729 9.12426 27.5907 9.53196 27.5907 13.0052C27.5907 16.4784 27.5729 16.8861 27.5015 18.2588C27.4361 19.5284 27.1924 20.2148 26.9844 20.6741C26.7109 21.283 26.3899 21.7166 25.8668 22.1707C25.3437 22.6248 24.8444 22.9087 24.143 23.1409C23.6139 23.3164 22.8233 23.5331 21.361 23.5899C19.7798 23.6518 19.3102 23.6673 15.3097 23.6673C11.3092 23.6673 10.8396 23.6518 9.25838 23.5899C7.79607 23.5331 7.00548 23.3216 6.47643 23.1409C5.775 22.9035 5.27568 22.6248 4.75257 22.1707C4.22947 21.7166 3.90254 21.283 3.63504 20.6741C3.43293 20.2148 3.18327 19.5284 3.11788 18.2588C3.04655 16.8861 3.02872 16.4784 3.02872 13.0052C3.02872 9.53196 3.04655 9.12426 3.11788 7.75149C3.18327 6.48194 3.42699 5.79555 3.63504 5.33624C3.90848 4.72727 4.22947 4.29377 4.75257 3.83962C5.27568 3.38547 5.775 3.10163 6.47643 2.86939C7.00548 2.69393 7.79607 2.47717 9.25838 2.4204C10.8396 2.35331 11.3151 2.34299 15.3097 2.34299Z" fill="white"/>
<path d="M15.3091 6.32715C11.0649 6.32715 7.61719 9.31524 7.61719 13.0052C7.61719 16.6951 11.059 19.6832 15.3091 19.6832C19.5593 19.6832 23.0011 16.6951 23.0011 13.0052C23.0011 9.31524 19.5593 6.32715 15.3091 6.32715ZM15.3091 17.3351C12.551 17.3351 10.3159 15.3946 10.3159 13C10.3159 10.6054 12.551 8.66498 15.3091 8.66498C18.0673 8.66498 20.3024 10.6054 20.3024 13C20.3024 15.3946 18.0673 17.3351 15.3091 17.3351Z" fill="#05042A"/>
<path d="M23.305 7.61711C24.2964 7.61711 25.1001 6.91932 25.1001 6.05856C25.1001 5.19779 24.2964 4.5 23.305 4.5C22.3135 4.5 21.5098 5.19779 21.5098 6.05856C21.5098 6.91932 22.3135 7.61711 23.305 7.61711Z" fill="#05042A"/>
</g>
<defs>
<clipPath id="clip0_890_1716">
<rect x="0.335938" width="29.9475" height="26" fill="white"/>
</clipPath>
</defs>
</svg>
