<svg width="30" height="26" viewBox="0 0 30 26" fill="none" xmlns="http://www.w3.org/2000/svg">
<g clip-path="url(#clip0_890_1717)">
<path d="M27.7895 0H2.26344C1.67713 0 1.11482 0.202212 0.700236 0.562152C0.285648 0.922092 0.0527344 1.41027 0.0527344 1.91931V24.0807C0.0527344 24.5897 0.285648 25.0779 0.700236 25.4379C1.11482 25.7978 1.67713 26 2.26344 26H27.7895C28.3759 26 28.9382 25.7978 29.3527 25.4379C29.7673 25.0779 30.0002 24.5897 30.0002 24.0807V1.91931C30.0002 1.41027 29.7673 0.922092 29.3527 0.562152C28.9382 0.202212 28.3759 0 27.7895 0ZM8.97876 22.1488H4.47623V9.73195H8.97876V22.1488ZM6.72438 8.01125C6.21364 8.00875 5.7152 7.87496 5.29197 7.62676C4.86874 7.37856 4.53967 7.02708 4.34631 6.61666C4.15294 6.20625 4.10394 5.75531 4.2055 5.32074C4.30705 4.88618 4.5546 4.48747 4.9169 4.17493C5.27921 3.86239 5.74004 3.65004 6.24122 3.56467C6.74241 3.47929 7.26149 3.52473 7.73296 3.69523C8.20444 3.86574 8.60717 4.15368 8.89033 4.52271C9.17349 4.89175 9.32439 5.32533 9.32399 5.76875C9.3288 6.06562 9.26473 6.36029 9.13558 6.63521C9.00643 6.91012 8.81486 7.15964 8.57227 7.36891C8.32968 7.57817 8.04105 7.74289 7.72357 7.85325C7.4061 7.9636 7.06628 8.01734 6.72438 8.01125ZM25.5747 22.1596H21.0742V15.3761C21.0742 13.3756 20.0947 12.7581 18.8302 12.7581C17.4951 12.7581 16.1849 13.6319 16.1849 15.4267V22.1596H11.6824V9.74097H16.0123V11.4617H16.0705C16.5052 10.6979 18.0275 9.3925 20.3505 9.3925C22.8628 9.3925 25.5768 10.6871 25.5768 14.4788L25.5747 22.1596Z" fill="white"/>
</g>
<defs>
<clipPath id="clip0_890_1717">
<rect x="0.0527344" width="29.9475" height="26" fill="white"/>
</clipPath>
</defs>
</svg>
