<svg width="173" height="41" viewBox="0 0 173 41" fill="none" xmlns="http://www.w3.org/2000/svg">
<path d="M99.3077 9.7289C94.5215 6.6608 88.0811 6.71159 83.2756 10.0619C78.47 13.4122 76.6419 19.1259 78.5107 24.2284C80.8405 21.8142 84.2904 18.9726 88.273 16.196C92.2559 13.4193 96.1601 11.1338 99.3085 9.72836L99.3077 9.7289Z" fill="white"/>
<path d="M105.941 10.1094C105.226 9.23141 103.516 9.39781 100.589 10.6377L100.141 10.8328C97.0463 12.1894 93.1396 14.471 89.1397 17.2596C85.1398 20.0482 81.6922 22.8939 79.4299 25.2719L79.1039 25.6162C78.0534 26.7488 77.3742 27.6815 77.0354 28.4432C76.7023 29.2009 76.7201 29.7894 77.0796 30.2309C77.7991 31.1142 79.511 30.9384 82.4498 29.6904C87.3113 33.6588 94.504 33.934 99.7452 30.2799C104.554 26.9275 106.375 21.2197 104.508 16.1147C104.066 16.5726 103.587 17.0401 103.065 17.521C103.12 17.5661 103.17 17.606 103.219 17.655C103.619 18.0351 103.835 18.5438 103.825 19.0763C103.816 19.6993 103.502 20.2688 102.96 20.6471C102.578 20.9128 102.098 21.0558 101.62 21.0471L98.1541 21.0026C97.5781 20.9952 97.0394 20.7786 96.6394 20.3985C96.2408 20.0091 96.0238 19.5096 96.0295 18.9719L96.1001 15.7695C96.1087 15.1464 96.4228 14.5769 96.9597 14.2026C97.3466 13.9329 97.8214 13.7939 98.3005 13.7933C99.0251 13.8052 99.6679 14.1497 100.048 14.6608C100.558 14.1879 101.02 13.7324 101.437 13.3001L101.691 12.9563C101.922 12.695 102.04 12.3958 102.107 12.0994C101.965 11.9479 101.828 11.8017 101.681 11.6541C104.118 10.6804 104.758 10.91 104.775 10.898C104.778 10.9126 104.803 11.1206 104.533 11.6342C104.265 12.1382 103.696 12.9515 102.512 14.1863C101.537 15.2001 100.311 16.3292 98.9493 17.4791L98.9845 15.811C98.9901 15.44 98.6709 15.1371 98.2754 15.1293C97.874 15.1254 97.5451 15.4215 97.5395 15.7924L97.4748 18.9908C97.4691 19.3618 97.7883 19.6647 98.1897 19.6686L101.65 19.7171C101.815 19.7192 101.972 19.6676 102.093 19.5832C102.266 19.4626 102.383 19.2724 102.38 19.0579C102.39 18.6922 102.077 18.3853 101.675 18.3814L100.046 18.3581C101.403 17.2028 102.617 16.0817 103.592 15.0679C105.949 12.6068 106.696 11.0349 105.942 10.1091L105.941 10.1094ZM81.3298 28.6946C78.9092 29.6564 78.2641 29.4305 78.2465 29.4427C78.2363 29.408 78.1697 28.7705 79.8477 26.8749C80.0659 27.198 80.2955 27.5137 80.5424 27.8168C80.7896 28.1203 81.054 28.4112 81.3298 28.6946L81.3298 28.6946Z" fill="white"/>
<path d="M105.941 10.1094C105.226 9.23141 103.516 9.39781 100.589 10.6377L100.141 10.8328C97.0463 12.1894 93.1396 14.471 89.1397 17.2596C85.1398 20.0482 81.6922 22.8939 79.4299 25.2719L79.1039 25.6162C78.0534 26.7488 77.3742 27.6815 77.0354 28.4432C76.7023 29.2009 76.7201 29.7894 77.0796 30.2309C77.7991 31.1142 79.511 30.9384 82.4498 29.6904C87.3113 33.6588 94.504 33.934 99.7452 30.2799C104.554 26.9275 106.375 21.2197 104.508 16.1147C104.066 16.5726 103.587 17.0401 103.065 17.521C103.12 17.5661 103.17 17.606 103.219 17.655C103.619 18.0351 103.835 18.5438 103.825 19.0763C103.816 19.6993 103.502 20.2688 102.96 20.6471C102.578 20.9128 102.098 21.0558 101.62 21.0471L98.1541 21.0026C97.5781 20.9952 97.0394 20.7786 96.6394 20.3985C96.2408 20.0091 96.0238 19.5096 96.0295 18.9719L96.1001 15.7695C96.1087 15.1464 96.4228 14.5769 96.9597 14.2026C97.3466 13.9329 97.8214 13.7939 98.3005 13.7933C99.0251 13.8052 99.6679 14.1497 100.048 14.6608C100.558 14.1879 101.02 13.7324 101.437 13.3001L101.691 12.9563C101.922 12.695 102.04 12.3958 102.107 12.0994C101.965 11.9479 101.828 11.8017 101.681 11.6541C104.118 10.6804 104.758 10.91 104.775 10.898C104.778 10.9126 104.803 11.1206 104.533 11.6342C104.265 12.1382 103.696 12.9515 102.512 14.1863C101.537 15.2001 100.311 16.3292 98.9493 17.4791L98.9845 15.811C98.9901 15.44 98.6709 15.1371 98.2754 15.1293C97.874 15.1254 97.5451 15.4215 97.5395 15.7924L97.4748 18.9908C97.4691 19.3618 97.7883 19.6647 98.1897 19.6686L101.65 19.7171C101.815 19.7192 101.972 19.6676 102.093 19.5832C102.266 19.4626 102.383 19.2724 102.38 19.0579C102.39 18.6922 102.077 18.3853 101.675 18.3814L100.046 18.3581C101.403 17.2028 102.617 16.0817 103.592 15.0679C105.949 12.6068 106.696 11.0349 105.942 10.1091L105.941 10.1094ZM81.3298 28.6946C78.9092 29.6564 78.2641 29.4305 78.2465 29.4427C78.2363 29.408 78.1697 28.7705 79.8477 26.8749C80.0659 27.198 80.2955 27.5137 80.5424 27.8168C80.7896 28.1203 81.054 28.4112 81.3298 28.6946L81.3298 28.6946Z" fill="white"/>
<path d="M2.324 10.595H5.852V29.999H2.324V10.595ZM12.4878 10.595C12.8984 11.3044 13.3558 12.1724 13.8598 13.199C14.3638 14.2257 14.8771 15.3084 15.3998 16.447C15.9224 17.567 16.4358 18.715 16.9398 19.891C17.4624 21.0484 17.9384 22.1217 18.3678 23.111C18.7971 22.1217 19.2638 21.0484 19.7678 19.891C20.2718 18.715 20.7851 17.567 21.3078 16.447C21.8304 15.3084 22.3438 14.2257 22.8478 13.199C23.3518 12.1724 23.8091 11.3044 24.2198 10.595H27.4118C27.5798 12.0137 27.7384 13.5257 27.8878 15.131C28.0371 16.7177 28.1678 18.351 28.2798 20.031C28.4104 21.6924 28.5224 23.3724 28.6158 25.071C28.7278 26.751 28.8211 28.3937 28.8958 29.999H25.4238C25.3491 27.7404 25.2558 25.4164 25.1438 23.027C25.0504 20.6377 24.9011 18.323 24.6958 16.083C24.4904 16.5124 24.2478 17.0257 23.9678 17.623C23.6878 18.2204 23.3891 18.8737 23.0718 19.583C22.7544 20.2737 22.4278 20.9924 22.0918 21.739C21.7744 22.4857 21.4571 23.2137 21.1398 23.923C20.8411 24.6137 20.5611 25.267 20.2998 25.883C20.0384 26.4804 19.8144 26.9937 19.6278 27.423H16.9958C16.8091 26.9937 16.5851 26.471 16.3238 25.855C16.0624 25.239 15.7731 24.5857 15.4558 23.895C15.1571 23.1857 14.8398 22.4577 14.5038 21.711C14.1864 20.9644 13.8691 20.2457 13.5518 19.555C13.2344 18.8644 12.9358 18.2204 12.6558 17.623C12.3758 17.007 12.1331 16.4937 11.9278 16.083C11.7224 18.323 11.5638 20.6377 11.4518 23.027C11.3584 25.4164 11.2744 27.7404 11.1998 29.999H7.72778C7.80245 28.3937 7.88645 26.7324 7.97978 25.015C8.09178 23.2977 8.20378 21.599 8.31578 19.919C8.44645 18.2204 8.58645 16.5777 8.73578 14.991C8.88511 13.4044 9.04378 11.939 9.21178 10.595H12.4878ZM34.9939 10.595C35.4045 11.3044 35.8619 12.1724 36.3659 13.199C36.8699 14.2257 37.3832 15.3084 37.9059 16.447C38.4285 17.567 38.9419 18.715 39.4459 19.891C39.9685 21.0484 40.4445 22.1217 40.8739 23.111C41.3032 22.1217 41.7699 21.0484 42.2739 19.891C42.7779 18.715 43.2912 17.567 43.8139 16.447C44.3365 15.3084 44.8499 14.2257 45.3539 13.199C45.8579 12.1724 46.3152 11.3044 46.7259 10.595H49.9179C50.0859 12.0137 50.2445 13.5257 50.3939 15.131C50.5432 16.7177 50.6739 18.351 50.7859 20.031C50.9165 21.6924 51.0285 23.3724 51.1219 25.071C51.2339 26.751 51.3272 28.3937 51.4019 29.999H47.9299C47.8552 27.7404 47.7619 25.4164 47.6499 23.027C47.5565 20.6377 47.4072 18.323 47.2019 16.083C46.9965 16.5124 46.7539 17.0257 46.4739 17.623C46.1939 18.2204 45.8952 18.8737 45.5779 19.583C45.2605 20.2737 44.9339 20.9924 44.5979 21.739C44.2805 22.4857 43.9632 23.2137 43.6459 23.923C43.3472 24.6137 43.0672 25.267 42.8059 25.883C42.5445 26.4804 42.3205 26.9937 42.1339 27.423H39.5019C39.3152 26.9937 39.0912 26.471 38.8299 25.855C38.5685 25.239 38.2792 24.5857 37.9619 23.895C37.6632 23.1857 37.3459 22.4577 37.0099 21.711C36.6925 20.9644 36.3752 20.2457 36.0579 19.555C35.7405 18.8644 35.4419 18.2204 35.1619 17.623C34.8819 17.007 34.6392 16.4937 34.4339 16.083C34.2285 18.323 34.0699 20.6377 33.9579 23.027C33.8645 25.4164 33.7805 27.7404 33.7059 29.999H30.2339C30.3085 28.3937 30.3925 26.7324 30.4859 25.015C30.5979 23.2977 30.7099 21.599 30.8219 19.919C30.9525 18.2204 31.0925 16.5777 31.2419 14.991C31.3912 13.4044 31.5499 11.939 31.7179 10.595H34.9939ZM53.272 10.595H56.8V29.999H53.272V10.595ZM67.8318 30.419C66.3758 30.419 65.0691 30.195 63.9118 29.747C62.7544 29.299 61.7744 28.6457 60.9718 27.787C60.1691 26.9097 59.5531 25.8457 59.1238 24.595C58.6944 23.3444 58.4798 21.907 58.4798 20.283C58.4798 18.659 58.7224 17.2217 59.2078 15.971C59.7118 14.7204 60.3931 13.6657 61.2518 12.807C62.1104 11.9297 63.1184 11.267 64.2758 10.819C65.4331 10.371 66.6744 10.147 67.9998 10.147C68.8024 10.147 69.5304 10.2124 70.1838 10.343C70.8371 10.455 71.4064 10.5857 71.8918 10.735C72.3771 10.8844 72.7784 11.043 73.0958 11.211C73.4131 11.379 73.6371 11.5004 73.7678 11.575L72.7318 14.459C72.2838 14.179 71.6398 13.9177 70.7998 13.675C69.9784 13.4137 69.0824 13.283 68.1118 13.283C67.2718 13.283 66.4878 13.4324 65.7598 13.731C65.0318 14.011 64.3971 14.4404 63.8558 15.019C63.3331 15.5977 62.9224 16.3257 62.6238 17.203C62.3251 18.0804 62.1758 19.0977 62.1758 20.255C62.1758 21.2817 62.2878 22.2244 62.5118 23.083C62.7544 23.9417 63.1184 24.6884 63.6038 25.323C64.0891 25.939 64.7051 26.4244 65.4518 26.779C66.1984 27.115 67.0944 27.283 68.1398 27.283C69.3904 27.283 70.4078 27.1617 71.1918 26.919C71.9758 26.6577 72.5824 26.415 73.0118 26.191L73.9638 29.075C73.7398 29.2244 73.4318 29.3737 73.0398 29.523C72.6664 29.6724 72.2184 29.8217 71.6958 29.971C71.1731 30.1017 70.5851 30.2044 69.9318 30.279C69.2784 30.3724 68.5784 30.419 67.8318 30.419ZM109.184 10.595H112.712V29.999H109.184V10.595ZM128.196 29.999C127.562 28.935 126.852 27.7964 126.068 26.583C125.284 25.351 124.472 24.119 123.632 22.887C122.792 21.6364 121.934 20.4324 121.056 19.275C120.198 18.099 119.376 17.0444 118.592 16.111V29.999H115.12V10.595H118.004C118.751 11.379 119.554 12.3124 120.412 13.395C121.271 14.459 122.13 15.5697 122.988 16.727C123.866 17.8844 124.706 19.051 125.508 20.227C126.33 21.3844 127.058 22.467 127.692 23.475V10.595H131.192V29.999H128.196ZM133.803 10.595H135.707V29.999H133.803V10.595ZM146.572 30.419C145.321 30.419 144.155 30.195 143.072 29.747C142.008 29.299 141.075 28.6457 140.272 27.787C139.488 26.9284 138.863 25.8737 138.396 24.623C137.948 23.3537 137.724 21.907 137.724 20.283C137.724 18.659 137.967 17.2217 138.452 15.971C138.956 14.7017 139.619 13.6377 140.44 12.779C141.261 11.9204 142.213 11.2764 143.296 10.847C144.379 10.399 145.508 10.175 146.684 10.175C147.412 10.175 148.075 10.2217 148.672 10.315C149.269 10.4084 149.792 10.5297 150.24 10.679C150.688 10.8097 151.071 10.9497 151.388 11.099C151.705 11.2297 151.948 11.351 152.116 11.463L151.5 13.115C151.033 12.835 150.436 12.5644 149.708 12.303C148.999 12.023 148.112 11.883 147.048 11.883C145.835 11.883 144.771 12.0884 143.856 12.499C142.96 12.9097 142.204 13.4884 141.588 14.235C140.972 14.9817 140.505 15.8684 140.188 16.895C139.889 17.9217 139.74 19.0604 139.74 20.311C139.74 21.599 139.889 22.7657 140.188 23.811C140.505 24.8377 140.963 25.715 141.56 26.443C142.157 27.171 142.885 27.731 143.744 28.123C144.621 28.515 145.62 28.711 146.74 28.711C147.972 28.711 148.999 28.599 149.82 28.375C150.66 28.1324 151.295 27.8897 151.724 27.647L152.256 29.271C152.125 29.3644 151.901 29.4764 151.584 29.607C151.267 29.719 150.865 29.8404 150.38 29.971C149.895 30.1017 149.335 30.2044 148.7 30.279C148.065 30.3724 147.356 30.419 146.572 30.419ZM170.501 20.283C170.501 21.9444 170.258 23.4097 169.773 24.679C169.287 25.9484 168.625 27.0124 167.785 27.871C166.963 28.711 166.002 29.3457 164.901 29.775C163.799 30.2044 162.633 30.419 161.401 30.419C160.169 30.419 159.002 30.2044 157.901 29.775C156.799 29.3457 155.829 28.711 154.989 27.871C154.167 27.0124 153.514 25.9484 153.029 24.679C152.543 23.4097 152.301 21.9444 152.301 20.283C152.301 18.6217 152.543 17.1657 153.029 15.915C153.514 14.6457 154.167 13.591 154.989 12.751C155.829 11.8924 156.799 11.2484 157.901 10.819C159.002 10.3897 160.169 10.175 161.401 10.175C162.633 10.175 163.799 10.3897 164.901 10.819C166.002 11.2484 166.963 11.8924 167.785 12.751C168.625 13.591 169.287 14.6457 169.773 15.915C170.258 17.1657 170.501 18.6217 170.501 20.283ZM168.485 20.283C168.485 18.9764 168.317 17.8097 167.981 16.783C167.645 15.7377 167.169 14.851 166.553 14.123C165.937 13.395 165.19 12.8444 164.313 12.471C163.454 12.079 162.483 11.883 161.401 11.883C160.318 11.883 159.338 12.079 158.461 12.471C157.602 12.8444 156.865 13.395 156.249 14.123C155.633 14.851 155.157 15.7377 154.821 16.783C154.485 17.8097 154.317 18.9764 154.317 20.283C154.317 21.5897 154.485 22.7657 154.821 23.811C155.157 24.8377 155.633 25.715 156.249 26.443C156.865 27.171 157.602 27.731 158.461 28.123C159.338 28.515 160.318 28.711 161.401 28.711C162.483 28.711 163.454 28.515 164.313 28.123C165.19 27.731 165.937 27.171 166.553 26.443C167.169 25.715 167.645 24.8377 167.981 23.811C168.317 22.7657 168.485 21.5897 168.485 20.283Z" fill="white"/>
</svg>
