<svg width="175" height="42" viewBox="0 0 175 42" fill="none" xmlns="http://www.w3.org/2000/svg">
<path d="M100.427 10.7391C95.5801 7.66147 89.0644 7.70353 84.2079 11.0505C79.3515 14.3975 77.5112 20.1143 79.4101 25.2242C81.7633 22.8109 85.2491 19.9712 89.2738 17.1974C93.2988 14.4234 97.2451 12.141 100.428 10.7385L100.427 10.7391Z" fill="#03D6A5"/>
<path d="M107.116 11.1107C106.391 10.2311 104.661 10.3953 101.702 11.6321L101.25 11.8267C98.1215 13.1802 94.1734 15.4581 90.1318 18.2434C86.0903 21.0286 82.6075 23.8717 80.3229 26.2485L79.9936 26.5926C78.9329 27.7246 78.2473 28.657 77.9058 29.4189C77.5701 30.1767 77.589 30.7657 77.9535 31.208C78.6826 32.0929 80.414 31.9193 83.3848 30.6744C88.3087 34.6524 95.5848 34.9376 100.881 31.2879C105.739 27.9396 107.572 22.23 105.675 17.1186C105.23 17.5762 104.746 18.0434 104.218 18.5239C104.273 18.5692 104.325 18.6092 104.375 18.6582C104.78 19.0392 104.999 19.5486 104.989 20.0814C104.982 20.705 104.665 21.2744 104.117 21.6523C103.732 21.9177 103.246 22.0601 102.762 22.0508L99.2563 22.0015C98.6736 21.9933 98.1284 21.7758 97.7231 21.3949C97.3193 21.0046 97.099 20.5045 97.1039 19.9664L97.1701 16.7616C97.1778 16.1381 97.4946 15.5686 98.0371 15.1947C98.428 14.9254 98.9081 14.7869 99.3927 14.787C100.126 14.7999 100.777 15.1455 101.162 15.6576C101.677 15.185 102.144 14.7297 102.565 14.2977L102.821 13.9539C103.055 13.6928 103.173 13.3935 103.24 13.097C103.097 12.9452 102.957 12.7986 102.808 12.6508C105.273 11.6796 105.92 11.9103 105.938 11.8983C105.94 11.9129 105.966 12.1212 105.694 12.6348C105.423 13.1388 104.85 13.9519 103.653 15.186C102.668 16.1992 101.431 17.3275 100.055 18.4765L100.088 16.8071C100.093 16.4359 99.7696 16.1323 99.3695 16.1239C98.9635 16.1195 98.6313 16.4153 98.6262 16.7865L98.5659 19.9873C98.5608 20.3585 98.8841 20.6621 99.2901 20.6665L102.79 20.7198C102.957 20.7222 103.116 20.6707 103.238 20.5864C103.413 20.4659 103.531 20.2758 103.528 20.0611C103.537 19.6952 103.22 19.3876 102.814 19.3832L101.165 19.3575C102.537 18.2033 103.763 17.083 104.748 16.0698C107.128 13.61 107.881 12.038 107.117 11.1104L107.116 11.1107ZM82.2502 29.6763C79.8032 30.6355 79.1503 30.4086 79.1326 30.4208C79.1221 30.3861 79.0537 29.748 80.7481 27.8532C80.9693 28.1769 81.2021 28.4931 81.4523 28.7968C81.7028 29.1008 81.9708 29.3923 82.2502 29.6764L82.2502 29.6763Z" fill="#03D6A5"/>
<path d="M107.116 11.1107C106.391 10.2311 104.661 10.3953 101.702 11.6321L101.25 11.8267C98.1215 13.1802 94.1734 15.4581 90.1318 18.2434C86.0903 21.0286 82.6075 23.8717 80.3229 26.2485L79.9936 26.5926C78.9329 27.7246 78.2473 28.657 77.9058 29.4189C77.5701 30.1767 77.589 30.7657 77.9535 31.208C78.6826 32.0929 80.414 31.9193 83.3848 30.6744C88.3087 34.6524 95.5848 34.9376 100.881 31.2879C105.739 27.9396 107.572 22.23 105.675 17.1186C105.23 17.5762 104.746 18.0434 104.218 18.5239C104.273 18.5692 104.325 18.6092 104.375 18.6582C104.78 19.0392 104.999 19.5486 104.989 20.0814C104.982 20.705 104.665 21.2744 104.117 21.6523C103.732 21.9177 103.246 22.0601 102.762 22.0508L99.2563 22.0015C98.6736 21.9933 98.1284 21.7758 97.7231 21.3949C97.3193 21.0046 97.099 20.5045 97.1039 19.9664L97.1701 16.7616C97.1778 16.1381 97.4946 15.5686 98.0371 15.1947C98.428 14.9254 98.9081 14.7869 99.3927 14.787C100.126 14.7999 100.777 15.1455 101.162 15.6576C101.677 15.185 102.144 14.7297 102.565 14.2977L102.821 13.9539C103.055 13.6928 103.173 13.3935 103.24 13.097C103.097 12.9452 102.957 12.7986 102.808 12.6508C105.273 11.6796 105.92 11.9103 105.938 11.8983C105.94 11.9129 105.966 12.1212 105.694 12.6348C105.423 13.1388 104.85 13.9519 103.653 15.186C102.668 16.1992 101.431 17.3275 100.055 18.4765L100.088 16.8071C100.093 16.4359 99.7696 16.1323 99.3695 16.1239C98.9635 16.1195 98.6313 16.4153 98.6262 16.7865L98.5659 19.9873C98.5608 20.3585 98.8841 20.6621 99.2901 20.6665L102.79 20.7198C102.957 20.7222 103.116 20.6707 103.238 20.5864C103.413 20.4659 103.531 20.2758 103.528 20.0611C103.537 19.6952 103.22 19.3876 102.814 19.3832L101.165 19.3575C102.537 18.2033 103.763 17.083 104.748 16.0698C107.128 13.61 107.881 12.038 107.117 11.1104L107.116 11.1107ZM82.2502 29.6763C79.8032 30.6355 79.1503 30.4086 79.1326 30.4208C79.1221 30.3861 79.0537 29.748 80.7481 27.8532C80.9693 28.1769 81.2021 28.4931 81.4523 28.7968C81.7028 29.1008 81.9708 29.3923 82.2502 29.6764L82.2502 29.6763Z" fill="#03D6A5"/>
<path d="M2.324 14.595H5.852V33.999H2.324V14.595ZM12.4878 14.595C12.8984 15.3044 13.3558 16.1724 13.8598 17.199C14.3638 18.2257 14.8771 19.3084 15.3998 20.447C15.9224 21.567 16.4358 22.715 16.9398 23.891C17.4624 25.0484 17.9384 26.1217 18.3678 27.111C18.7971 26.1217 19.2638 25.0484 19.7678 23.891C20.2718 22.715 20.7851 21.567 21.3078 20.447C21.8304 19.3084 22.3438 18.2257 22.8478 17.199C23.3518 16.1724 23.8091 15.3044 24.2198 14.595H27.4118C27.5798 16.0137 27.7384 17.5257 27.8878 19.131C28.0371 20.7177 28.1678 22.351 28.2798 24.031C28.4104 25.6924 28.5224 27.3724 28.6158 29.071C28.7278 30.751 28.8211 32.3937 28.8958 33.999H25.4238C25.3491 31.7404 25.2558 29.4164 25.1438 27.027C25.0504 24.6377 24.9011 22.323 24.6958 20.083C24.4904 20.5124 24.2478 21.0257 23.9678 21.623C23.6878 22.2204 23.3891 22.8737 23.0718 23.583C22.7544 24.2737 22.4278 24.9924 22.0918 25.739C21.7744 26.4857 21.4571 27.2137 21.1398 27.923C20.8411 28.6137 20.5611 29.267 20.2998 29.883C20.0384 30.4804 19.8144 30.9937 19.6278 31.423H16.9958C16.8091 30.9937 16.5851 30.471 16.3238 29.855C16.0624 29.239 15.7731 28.5857 15.4558 27.895C15.1571 27.1857 14.8398 26.4577 14.5038 25.711C14.1864 24.9644 13.8691 24.2457 13.5518 23.555C13.2344 22.8644 12.9358 22.2204 12.6558 21.623C12.3758 21.007 12.1331 20.4937 11.9278 20.083C11.7224 22.323 11.5638 24.6377 11.4518 27.027C11.3584 29.4164 11.2744 31.7404 11.1998 33.999H7.72778C7.80245 32.3937 7.88645 30.7324 7.97978 29.015C8.09178 27.2977 8.20378 25.599 8.31578 23.919C8.44645 22.2204 8.58645 20.5777 8.73578 18.991C8.88511 17.4044 9.04378 15.939 9.21178 14.595H12.4878ZM34.9939 14.595C35.4045 15.3044 35.8619 16.1724 36.3659 17.199C36.8699 18.2257 37.3832 19.3084 37.9059 20.447C38.4285 21.567 38.9419 22.715 39.4459 23.891C39.9685 25.0484 40.4445 26.1217 40.8739 27.111C41.3032 26.1217 41.7699 25.0484 42.2739 23.891C42.7779 22.715 43.2912 21.567 43.8139 20.447C44.3365 19.3084 44.8499 18.2257 45.3539 17.199C45.8579 16.1724 46.3152 15.3044 46.7259 14.595H49.9179C50.0859 16.0137 50.2445 17.5257 50.3939 19.131C50.5432 20.7177 50.6739 22.351 50.7859 24.031C50.9165 25.6924 51.0285 27.3724 51.1219 29.071C51.2339 30.751 51.3272 32.3937 51.4019 33.999H47.9299C47.8552 31.7404 47.7619 29.4164 47.6499 27.027C47.5565 24.6377 47.4072 22.323 47.2019 20.083C46.9965 20.5124 46.7539 21.0257 46.4739 21.623C46.1939 22.2204 45.8952 22.8737 45.5779 23.583C45.2605 24.2737 44.9339 24.9924 44.5979 25.739C44.2805 26.4857 43.9632 27.2137 43.6459 27.923C43.3472 28.6137 43.0672 29.267 42.8059 29.883C42.5445 30.4804 42.3205 30.9937 42.1339 31.423H39.5019C39.3152 30.9937 39.0912 30.471 38.8299 29.855C38.5685 29.239 38.2792 28.5857 37.9619 27.895C37.6632 27.1857 37.3459 26.4577 37.0099 25.711C36.6925 24.9644 36.3752 24.2457 36.0579 23.555C35.7405 22.8644 35.4419 22.2204 35.1619 21.623C34.8819 21.007 34.6392 20.4937 34.4339 20.083C34.2285 22.323 34.0699 24.6377 33.9579 27.027C33.8645 29.4164 33.7805 31.7404 33.7059 33.999H30.2339C30.3085 32.3937 30.3925 30.7324 30.4859 29.015C30.5979 27.2977 30.7099 25.599 30.8219 23.919C30.9525 22.2204 31.0925 20.5777 31.2419 18.991C31.3912 17.4044 31.5499 15.939 31.7179 14.595H34.9939ZM53.272 14.595H56.8V33.999H53.272V14.595ZM67.8318 34.419C66.3758 34.419 65.0691 34.195 63.9118 33.747C62.7544 33.299 61.7744 32.6457 60.9718 31.787C60.1691 30.9097 59.5531 29.8457 59.1238 28.595C58.6944 27.3444 58.4798 25.907 58.4798 24.283C58.4798 22.659 58.7224 21.2217 59.2078 19.971C59.7118 18.7204 60.3931 17.6657 61.2518 16.807C62.1104 15.9297 63.1184 15.267 64.2758 14.819C65.4331 14.371 66.6744 14.147 67.9998 14.147C68.8024 14.147 69.5304 14.2124 70.1838 14.343C70.8371 14.455 71.4064 14.5857 71.8918 14.735C72.3771 14.8844 72.7784 15.043 73.0958 15.211C73.4131 15.379 73.6371 15.5004 73.7678 15.575L72.7318 18.459C72.2838 18.179 71.6398 17.9177 70.7998 17.675C69.9784 17.4137 69.0824 17.283 68.1118 17.283C67.2718 17.283 66.4878 17.4324 65.7598 17.731C65.0318 18.011 64.3971 18.4404 63.8558 19.019C63.3331 19.5977 62.9224 20.3257 62.6238 21.203C62.3251 22.0804 62.1758 23.0977 62.1758 24.255C62.1758 25.2817 62.2878 26.2244 62.5118 27.083C62.7544 27.9417 63.1184 28.6884 63.6038 29.323C64.0891 29.939 64.7051 30.4244 65.4518 30.779C66.1984 31.115 67.0944 31.283 68.1398 31.283C69.3904 31.283 70.4078 31.1617 71.1918 30.919C71.9758 30.6577 72.5824 30.415 73.0118 30.191L73.9638 33.075C73.7398 33.2244 73.4318 33.3737 73.0398 33.523C72.6664 33.6724 72.2184 33.8217 71.6958 33.971C71.1731 34.1017 70.5851 34.2044 69.9318 34.279C69.2784 34.3724 68.5784 34.419 67.8318 34.419ZM109.184 14.595H112.712V33.999H109.184V14.595ZM128.196 33.999C127.562 32.935 126.852 31.7964 126.068 30.583C125.284 29.351 124.472 28.119 123.632 26.887C122.792 25.6364 121.934 24.4324 121.056 23.275C120.198 22.099 119.376 21.0444 118.592 20.111V33.999H115.12V14.595H118.004C118.751 15.379 119.554 16.3124 120.412 17.395C121.271 18.459 122.13 19.5697 122.988 20.727C123.866 21.8844 124.706 23.051 125.508 24.227C126.33 25.3844 127.058 26.467 127.692 27.475V14.595H131.192V33.999H128.196ZM136.883 33.999V15.519H137.779V33.999H136.883ZM150.335 34.335C148.823 34.335 147.488 33.943 146.331 33.159C145.192 32.3564 144.305 31.2364 143.671 29.799C143.036 28.343 142.719 26.6444 142.719 24.703C142.719 23.247 142.896 21.9404 143.251 20.783C143.624 19.607 144.156 18.599 144.847 17.759C145.537 16.919 146.359 16.2844 147.311 15.855C148.263 15.407 149.327 15.183 150.503 15.183C151.567 15.183 152.5 15.407 153.303 15.855C154.105 16.303 154.74 16.807 155.207 17.367L154.647 17.983C154.143 17.3857 153.545 16.9097 152.855 16.555C152.164 16.2004 151.38 16.023 150.503 16.023C149.084 16.023 147.861 16.3777 146.835 17.087C145.827 17.7964 145.043 18.8044 144.483 20.111C143.941 21.399 143.671 22.9297 143.671 24.703C143.671 26.4764 143.941 28.0257 144.483 29.351C145.024 30.6577 145.799 31.675 146.807 32.403C147.815 33.131 149.009 33.495 150.391 33.495C151.38 33.495 152.257 33.299 153.023 32.907C153.788 32.515 154.516 31.927 155.207 31.143L155.767 31.703C155.076 32.5057 154.301 33.1497 153.443 33.635C152.584 34.1017 151.548 34.335 150.335 34.335ZM165.876 34.335C164.42 34.335 163.123 33.943 161.984 33.159C160.864 32.3564 159.978 31.2364 159.324 29.799C158.69 28.343 158.372 26.6444 158.372 24.703C158.372 22.7617 158.69 21.0817 159.324 19.663C159.978 18.2257 160.864 17.1244 161.984 16.359C163.123 15.575 164.42 15.183 165.876 15.183C167.332 15.183 168.62 15.575 169.74 16.359C170.879 17.1244 171.766 18.2257 172.4 19.663C173.054 21.0817 173.38 22.7617 173.38 24.703C173.38 26.6444 173.054 28.343 172.4 29.799C171.766 31.2364 170.879 32.3564 169.74 33.159C168.62 33.943 167.332 34.335 165.876 34.335ZM165.876 33.495C167.183 33.495 168.322 33.131 169.292 32.403C170.282 31.675 171.047 30.6577 171.588 29.351C172.148 28.0257 172.428 26.4764 172.428 24.703C172.428 22.9297 172.148 21.399 171.588 20.111C171.047 18.8044 170.282 17.7964 169.292 17.087C168.322 16.3777 167.183 16.023 165.876 16.023C164.57 16.023 163.422 16.3777 162.432 17.087C161.462 17.7964 160.696 18.8044 160.136 20.111C159.595 21.399 159.324 22.9297 159.324 24.703C159.324 26.4764 159.595 28.0257 160.136 29.351C160.696 30.6577 161.462 31.675 162.432 32.403C163.422 33.131 164.57 33.495 165.876 33.495Z" fill="#03D6A5"/>
</svg>
