<svg width="47" height="42" viewBox="0 0 47 42" fill="none" xmlns="http://www.w3.org/2000/svg">
<path d="M31.4273 10.7391C26.5801 7.66147 20.0644 7.70353 15.2079 11.0505C10.3515 14.3975 8.51122 20.1143 10.4101 25.2242C12.7633 22.8109 16.2491 19.9712 20.2738 17.1974C24.2988 14.4234 28.2451 12.141 31.4281 10.7385L31.4273 10.7391Z" fill="#03D6A5"/>
<path d="M38.1156 11.1107C37.3909 10.2311 35.661 10.3953 32.7021 11.6321L32.2496 11.8267C29.1215 13.1802 25.1734 15.4581 21.1318 18.2434C17.0903 21.0286 13.6075 23.8717 11.3229 26.2485L10.9936 26.5926C9.93288 27.7246 9.24733 28.657 8.90583 29.4189C8.5701 30.1767 8.58905 30.7657 8.95348 31.208C9.68263 32.0929 11.414 31.9193 14.3848 30.6744C19.3087 34.6524 26.5848 34.9376 31.8806 31.2879C36.7392 27.9396 38.5723 22.23 36.6754 17.1186C36.2296 17.5762 35.7458 18.0434 35.218 18.5239C35.2734 18.5692 35.3246 18.6092 35.3746 18.6582C35.7798 19.0392 35.9987 19.5486 35.9894 20.0814C35.9817 20.705 35.6649 21.2744 35.1166 21.6523C34.7315 21.9177 34.2457 22.0601 33.7625 22.0508L30.2563 22.0015C29.6736 21.9933 29.1284 21.7758 28.7231 21.3949C28.3193 21.0046 28.099 20.5045 28.1039 19.9664L28.1701 16.7616C28.1778 16.1381 28.4946 15.5686 29.0371 15.1947C29.428 14.9254 29.9081 14.7869 30.3927 14.787C31.1258 14.7999 31.7765 15.1455 32.1616 15.6576C32.6773 15.185 33.1437 14.7297 33.5651 14.2977L33.8215 13.9539C34.0545 13.6928 34.1734 13.3935 34.2401 13.097C34.0968 12.9452 33.9574 12.7986 33.8083 12.6508C36.2727 11.6796 36.9202 11.9103 36.9375 11.8983C36.9404 11.9129 36.9656 12.1212 36.6937 12.6348C36.423 13.1388 35.8496 13.9519 34.6534 15.186C33.6685 16.1992 32.4309 17.3275 31.055 18.4765L31.0879 16.8071C31.093 16.4359 30.7696 16.1323 30.3695 16.1239C29.9635 16.1195 29.6313 16.4153 29.6262 16.7865L29.5659 19.9873C29.5608 20.3585 29.8841 20.6621 30.2901 20.6665L33.7905 20.7198C33.957 20.7222 34.116 20.6707 34.2384 20.5864C34.4132 20.4659 34.5312 20.2758 34.5279 20.0611C34.5374 19.6952 34.2198 19.3876 33.8139 19.3832L32.1653 19.3575C33.5368 18.2033 34.7627 17.083 35.7476 16.0698C38.1279 13.61 38.8811 12.038 38.1169 11.1104L38.1156 11.1107ZM13.2502 29.6763C10.8032 30.6355 10.1503 30.4086 10.1326 30.4208C10.1221 30.3861 10.0537 29.748 11.7481 27.8532C11.9693 28.1769 12.2021 28.4931 12.4523 28.7968C12.7028 29.1008 12.9708 29.3923 13.2502 29.6764L13.2502 29.6763Z" fill="#03D6A5"/>
<path d="M38.1156 11.1107C37.3909 10.2311 35.661 10.3953 32.7021 11.6321L32.2496 11.8267C29.1215 13.1802 25.1734 15.4581 21.1318 18.2434C17.0903 21.0286 13.6075 23.8717 11.3229 26.2485L10.9936 26.5926C9.93288 27.7246 9.24733 28.657 8.90583 29.4189C8.5701 30.1767 8.58905 30.7657 8.95348 31.208C9.68263 32.0929 11.414 31.9193 14.3848 30.6744C19.3087 34.6524 26.5848 34.9376 31.8806 31.2879C36.7392 27.9396 38.5723 22.23 36.6754 17.1186C36.2296 17.5762 35.7458 18.0434 35.218 18.5239C35.2734 18.5692 35.3246 18.6092 35.3746 18.6582C35.7798 19.0392 35.9987 19.5486 35.9894 20.0814C35.9817 20.705 35.6649 21.2744 35.1166 21.6523C34.7315 21.9177 34.2457 22.0601 33.7625 22.0508L30.2563 22.0015C29.6736 21.9933 29.1284 21.7758 28.7231 21.3949C28.3193 21.0046 28.099 20.5045 28.1039 19.9664L28.1701 16.7616C28.1778 16.1381 28.4946 15.5686 29.0371 15.1947C29.428 14.9254 29.9081 14.7869 30.3927 14.787C31.1258 14.7999 31.7765 15.1455 32.1616 15.6576C32.6773 15.185 33.1437 14.7297 33.5651 14.2977L33.8215 13.9539C34.0545 13.6928 34.1734 13.3935 34.2401 13.097C34.0968 12.9452 33.9574 12.7986 33.8083 12.6508C36.2727 11.6796 36.9202 11.9103 36.9375 11.8983C36.9404 11.9129 36.9656 12.1212 36.6937 12.6348C36.423 13.1388 35.8496 13.9519 34.6534 15.186C33.6685 16.1992 32.4309 17.3275 31.055 18.4765L31.0879 16.8071C31.093 16.4359 30.7696 16.1323 30.3695 16.1239C29.9635 16.1195 29.6313 16.4153 29.6262 16.7865L29.5659 19.9873C29.5608 20.3585 29.8841 20.6621 30.2901 20.6665L33.7905 20.7198C33.957 20.7222 34.116 20.6707 34.2384 20.5864C34.4132 20.4659 34.5312 20.2758 34.5279 20.0611C34.5374 19.6952 34.2198 19.3876 33.8139 19.3832L32.1653 19.3575C33.5368 18.2033 34.7627 17.083 35.7476 16.0698C38.1279 13.61 38.8811 12.038 38.1169 11.1104L38.1156 11.1107ZM13.2502 29.6763C10.8032 30.6355 10.1503 30.4086 10.1326 30.4208C10.1221 30.3861 10.0537 29.748 11.7481 27.8532C11.9693 28.1769 12.2021 28.4931 12.4523 28.7968C12.7028 29.1008 12.9708 29.3923 13.2502 29.6764L13.2502 29.6763Z" fill="#03D6A5"/>
</svg>
