<svg width="31" height="26" viewBox="0 0 31 26" fill="none" xmlns="http://www.w3.org/2000/svg">
<path d="M26.8957 7.77974C26.9072 8.00854 26.9072 8.22694 26.9072 8.45574C26.9188 15.3926 21.0485 23.4006 10.3133 23.4006C7.14699 23.4006 4.03851 22.579 1.36914 21.0398C1.83137 21.0918 2.2936 21.1126 2.75582 21.1126C5.37897 21.1126 7.93278 20.3222 10.0012 18.8558C7.50522 18.8142 5.30963 17.3478 4.54696 15.2054C5.42519 15.3614 6.32654 15.3302 7.18166 15.1118C4.46607 14.6334 2.51316 12.4806 2.5016 9.97414C2.5016 9.95334 2.5016 9.93254 2.5016 9.91174C3.3105 10.3173 4.2234 10.5461 5.14786 10.5669C2.59405 9.02774 1.7967 5.95973 3.34517 3.55732C6.31498 6.84373 10.683 8.83014 15.3747 9.04854C14.9009 7.22853 15.548 5.31493 17.0618 4.02532C19.4076 2.03892 23.1054 2.14292 25.3241 4.25412C26.6299 4.02532 27.8895 3.58852 29.0335 2.97492C28.5944 4.19172 27.6815 5.22133 26.4681 5.87653C27.6237 5.75173 28.7562 5.47093 29.8193 5.05493C29.0335 6.11573 28.0397 7.03093 26.8957 7.77974Z" fill="white"/>
</svg>
